<svg xmlns="http://www.w3.org/2000/svg" version="1.1" xlink="http://www.w3.org/1999/xlink" xmlns:svgjs="http://svgjs.com/svgjs" width="100%" height="100%" viewBox="10.57400131225586 2.4134066104888916 78.84799194335938 87.0125961303711"><g fill="#000000"><path d="M50 89.426c-21.738 0-39.426-17.688-39.426-39.426S28.262 10.574 50 10.574a1.605 1.605 0 1 1 0 3.211c-19.969 0-36.211 16.246-36.211 36.211S30.035 86.207 50 86.207s36.211-16.246 36.211-36.211a1.605 1.605 0 1 1 3.211 0c.004 21.742-17.684 39.43-39.422 39.43z"></path><path d="M75.238 10.324l-4.148.004-7.598-7.344c-1.695-1.64-3.258.617-2.145 2.219l3.848 5.133-7.332.008-1.008-1.032c-2.004-2.078-2.066.133-2.03 1.786v1.585c0 1.692 1.792 1.72 2.698 1.743l7.617.011-3.796 5.067c-1.114 1.605.449 3.86 2.144 2.219l7.531-7.278 4.543.004c5.582 0 2.582-4.125-.324-4.125zm-11.23 27.934c-1.29-1.3-3.273-2.438-6.09-2.41-4.87.347-6.476 3.406-7.66 5.906-1.172-2.55-3.125-5.957-8.2-5.906-4.152.265-6.636 2.797-7.534 5.969-1.098 3.863.312 8.125 2.05 10.55 1.793 2.505 4.403 4.583 6.692 6.575 2.43 2.113 3.969 2.922 7.055 5.469 3.062-2.817 7.875-5.825 11.875-9.989 1.816-1.968 3.398-4.011 3.918-7.418.554-3.601-.075-6.695-2.106-8.746z"></path></g></svg>