<svg xmlns="http://www.w3.org/2000/svg" version="1.1" xlink="http://www.w3.org/1999/xlink" xmlns:svgjs="http://svgjs.com/svgjs" width="100%" height="100%" viewBox="1.9300000667572021 -23.81999969482422 382.32000732421875 24.28999900817871"><g fill="#3d3d3d"><path d="M2.03 -1.37C2.64 -0.74 3.49 -0.28 4.59 0.02C5.69 0.32 6.73 0.47 7.71 0.47C9.6 0.47 11.11 -0.11 12.24 -1.25C13.38 -2.4 13.94 -3.86 13.94 -5.64C13.94 -7.42 13.39 -8.82 12.28 -9.84L5.7 -15.91C4.81 -16.73 4.37 -17.71 4.37 -18.85C4.37 -19.98 4.75 -20.93 5.52 -21.68C6.29 -22.44 7.24 -22.82 8.37 -22.82C9.51 -22.82 10.44 -22.51 11.16 -21.88C11.88 -21.26 12.24 -20.43 12.24 -19.38L12.54 -19.38L12.54 -23.48L11.24 -23.48C10.17 -23.71 9.22 -23.82 8.37 -23.82C6.57 -23.82 5.14 -23.26 4.09 -22.13C3.03 -21.01 2.5 -19.66 2.5 -18.08C2.5 -16.5 3.1 -15.16 4.3 -14.04L10.71 -8.11C11.58 -7.31 12.01 -6.27 12.01 -4.99C12.01 -3.71 11.56 -2.65 10.66 -1.8C9.76 -0.96 8.61 -0.53 7.21 -0.53C5.85 -0.53 4.76 -0.98 3.94 -1.88C3.11 -2.79 2.7 -3.91 2.7 -5.27C2.7 -5.52 2.71 -5.76 2.74 -6L2.44 -6C2.1 -5 1.93 -4.06 1.93 -3.17C1.93 -2.28 1.97 -1.68 2.03 -1.37Z M38.13 -19.68L38.13 -20.01L31.79 -20.01L31.79 -19.68L32.02 -19.68C32.47 -19.68 32.8 -19.53 33.02 -19.23C33.25 -18.93 33.36 -18.65 33.36 -18.4C33.36 -18.14 33.3 -17.87 33.19 -17.58L27.05 -3.1L21.08 -17.65C21.02 -17.91 20.98 -18.17 20.98 -18.41C20.98 -18.66 21.09 -18.93 21.3 -19.23C21.51 -19.53 21.83 -19.68 22.25 -19.68L22.52 -19.68L22.52 -20.01L15.68 -20.01L15.68 -19.68L15.95 -19.68C17.01 -19.68 17.87 -19.03 18.51 -17.71L26.75 0.47L27.05 0.47C27.08 0.16 27.28 -0.47 27.65 -1.4C27.85 -1.89 30.38 -7.34 35.23 -17.75C35.56 -18.39 35.96 -18.88 36.43 -19.2C36.89 -19.52 37.37 -19.68 37.86 -19.68Z M40.26 -0.33L39.8 -0.33L39.8 0L53.34 0L55.17 -4.77L54.84 -4.77C54.46 -3.97 54.09 -3.32 53.72 -2.84C53.36 -2.35 52.82 -1.92 52.12 -1.57C51.42 -1.21 50.56 -1.03 49.54 -1.03L44.3 -1.03L44.3 -9.51L50.1 -9.51C50.3 -9.48 50.49 -9.44 50.67 -9.37C51.14 -9.15 51.37 -8.73 51.37 -8.11L51.37 -7.67L51.74 -7.67L51.74 -12.34L51.37 -12.34L51.37 -11.91C51.37 -11.51 51.25 -11.17 51.02 -10.91C50.79 -10.64 50.45 -10.51 50 -10.51L44.3 -10.51L44.3 -18.98L51.24 -18.98C51.73 -18.98 52.13 -18.81 52.44 -18.48C52.75 -18.15 52.91 -17.75 52.91 -17.28L52.91 -16.78L53.27 -16.75L53.27 -20.55C53.07 -20.46 52.63 -20.35 51.94 -20.22C51.25 -20.08 50.45 -20.01 49.54 -20.01L39.8 -20.01L39.8 -19.68L40.26 -19.68C40.8 -19.68 41.25 -19.51 41.63 -19.18C42.01 -18.85 42.2 -18.44 42.2 -17.95L42.2 -2.1C42.18 -1.61 41.98 -1.2 41.61 -0.85C41.25 -0.51 40.8 -0.33 40.26 -0.33Z M66.92 -19.05L72.95 -19.05C73.44 -19.05 73.84 -18.88 74.16 -18.55C74.47 -18.21 74.62 -17.81 74.62 -17.35L74.62 -16.81L74.99 -16.81L74.99 -20.58C74.1 -20.23 72.85 -20.05 71.25 -20.05L60.38 -20.05C59.98 -20.05 59.37 -20.09 58.56 -20.18C57.75 -20.27 57.12 -20.4 56.68 -20.58L56.68 -16.81L57.04 -16.81L57.04 -17.35C57.04 -17.81 57.19 -18.21 57.49 -18.55C57.79 -18.88 58.2 -19.05 58.71 -19.05L64.75 -19.05L64.75 -2.13C64.73 -1.65 64.53 -1.22 64.15 -0.87C63.77 -0.51 63.31 -0.33 62.78 -0.33L62.38 -0.33L62.38 0L69.25 0L69.25 -0.33L68.88 -0.33C68.53 -0.33 68.21 -0.41 67.92 -0.57C67.27 -0.9 66.94 -1.41 66.92 -2.1Z M77.76 -0.33L77.29 -0.33L77.29 0L90.83 0L92.67 -4.77L92.34 -4.77C91.98 -3.97 91.62 -3.32 91.25 -2.84C90.88 -2.35 90.34 -1.92 89.63 -1.57C88.92 -1.21 88.05 -1.03 87.03 -1.03L81.83 -1.03L81.83 -17.88C81.83 -18.37 82.02 -18.79 82.41 -19.15C82.8 -19.5 83.26 -19.68 83.8 -19.68L84.2 -19.68L84.2 -20.01L77.29 -20.01L77.29 -19.68L77.69 -19.68C78.22 -19.68 78.69 -19.5 79.08 -19.15C79.46 -18.79 79.67 -18.37 79.69 -17.88L79.69 -2.1C79.67 -1.61 79.48 -1.2 79.11 -0.85C78.74 -0.51 78.29 -0.33 77.76 -0.33Z M115.35 -0.33C114.28 -0.33 113.43 -0.98 112.78 -2.27L104.54 -20.48L104.24 -20.48C104.22 -20.17 104.02 -19.55 103.64 -18.61C103.44 -18.12 100.91 -12.68 96.04 -2.27C95.73 -1.62 95.33 -1.14 94.85 -0.82C94.38 -0.49 93.9 -0.33 93.44 -0.33L93.17 -0.33L93.17 0L99.54 0L99.54 -0.33L99.27 -0.33C98.83 -0.33 98.5 -0.48 98.27 -0.78C98.05 -1.08 97.94 -1.36 97.94 -1.62C97.94 -1.87 97.99 -2.15 98.11 -2.44L99.94 -6.77L108.38 -6.77L110.22 -2.34C110.3 -2.09 110.35 -1.84 110.35 -1.58C110.35 -1.33 110.24 -1.06 110.01 -0.77C109.79 -0.48 109.47 -0.33 109.05 -0.33L108.78 -0.33L108.78 0L115.62 0L115.62 -0.33ZM100.37 -7.77L104.24 -16.91L107.98 -7.77Z M139.7 -19.68L140.27 -19.68L140.27 -20.01L133.97 -20.01L133.97 -19.68L134.53 -19.68C135.02 -19.68 135.44 -19.52 135.8 -19.2C136.16 -18.88 136.36 -18.48 136.4 -18.01L136.4 -4.17L119.09 -20.48L118.72 -20.52L118.79 -19.98C118.94 -18.91 119.02 -17.7 119.02 -16.35L119.02 -2.07C119.02 -1.58 118.84 -1.17 118.49 -0.83C118.13 -0.5 117.7 -0.33 117.19 -0.33L116.62 -0.33L116.62 0L122.92 0L122.92 -0.33L122.36 -0.33C121.85 -0.33 121.41 -0.5 121.06 -0.83C120.7 -1.17 120.52 -1.58 120.52 -2.07L120.52 -15.98L137.87 0.47L138.17 0.47L138.1 -0.13C137.95 -1.29 137.87 -2.51 137.87 -3.8L137.87 -18.01C137.89 -18.48 138.08 -18.88 138.44 -19.2C138.79 -19.52 139.21 -19.68 139.7 -19.68Z M163.45 -0.33C162.39 -0.33 161.53 -0.98 160.89 -2.27L152.65 -20.48L152.35 -20.48C152.32 -20.17 152.12 -19.55 151.75 -18.61C151.55 -18.12 149.01 -12.68 144.14 -2.27C143.83 -1.62 143.43 -1.14 142.96 -0.82C142.48 -0.49 142.01 -0.33 141.54 -0.33L141.27 -0.33L141.27 0L147.64 0L147.64 -0.33L147.38 -0.33C146.93 -0.33 146.6 -0.48 146.38 -0.78C146.15 -1.08 146.04 -1.36 146.04 -1.62C146.04 -1.87 146.1 -2.15 146.21 -2.44L148.04 -6.77L156.48 -6.77L158.32 -2.34C158.41 -2.09 158.45 -1.84 158.45 -1.58C158.45 -1.33 158.34 -1.06 158.12 -0.77C157.89 -0.48 157.57 -0.33 157.15 -0.33L156.88 -0.33L156.88 0L163.72 0L163.72 -0.33ZM148.48 -7.77L152.35 -16.91L156.08 -7.77Z M173.93 -1.37C174.53 -0.74 175.38 -0.28 176.48 0.02C177.58 0.32 178.62 0.47 179.6 0.47C181.49 0.47 183 -0.11 184.14 -1.25C185.27 -2.4 185.84 -3.86 185.84 -5.64C185.84 -7.42 185.28 -8.82 184.17 -9.84L177.6 -15.91C176.71 -16.73 176.26 -17.71 176.26 -18.85C176.26 -19.98 176.65 -20.93 177.41 -21.68C178.18 -22.44 179.13 -22.82 180.27 -22.82C181.4 -22.82 182.33 -22.51 183.05 -21.88C183.78 -21.26 184.14 -20.43 184.14 -19.38L184.44 -19.38L184.44 -23.48L183.14 -23.48C182.07 -23.71 181.11 -23.82 180.27 -23.82C178.47 -23.82 177.04 -23.26 175.98 -22.13C174.92 -21.01 174.4 -19.66 174.4 -18.08C174.4 -16.5 175 -15.16 176.2 -14.04L182.6 -8.11C183.47 -7.31 183.9 -6.27 183.9 -4.99C183.9 -3.71 183.45 -2.65 182.55 -1.8C181.65 -0.96 180.5 -0.53 179.1 -0.53C177.74 -0.53 176.65 -0.98 175.83 -1.88C175.01 -2.79 174.6 -3.91 174.6 -5.27C174.6 -5.52 174.61 -5.76 174.63 -6L174.33 -6C174 -5 173.83 -4.06 173.83 -3.17C173.83 -2.28 173.86 -1.68 173.93 -1.37Z M209.42 -0.33C208.35 -0.33 207.5 -0.98 206.85 -2.27L198.61 -20.48L198.31 -20.48C198.29 -20.17 198.09 -19.55 197.71 -18.61C197.51 -18.12 194.98 -12.68 190.11 -2.27C189.8 -1.62 189.4 -1.14 188.92 -0.82C188.45 -0.49 187.97 -0.33 187.51 -0.33L187.24 -0.33L187.24 0L193.61 0L193.61 -0.33L193.34 -0.33C192.9 -0.33 192.57 -0.48 192.34 -0.78C192.12 -1.08 192.01 -1.36 192.01 -1.62C192.01 -1.87 192.06 -2.15 192.18 -2.44L194.01 -6.77L202.45 -6.77L204.28 -2.34C204.37 -2.09 204.42 -1.84 204.42 -1.58C204.42 -1.33 204.31 -1.06 204.08 -0.77C203.86 -0.48 203.54 -0.33 203.12 -0.33L202.85 -0.33L202.85 0L209.69 0L209.69 -0.33ZM194.44 -7.77L198.31 -16.91L202.05 -7.77Z M238.08 -0.33C237.5 -0.33 237 -0.5 236.58 -0.83C236.15 -1.17 235.9 -1.61 235.81 -2.17L233.11 -20.48L232.81 -20.48L224.3 -3.54L215.49 -20.48L215.16 -20.48L212.56 -2.23C212.51 -1.83 212.38 -1.49 212.16 -1.2C211.71 -0.62 211.09 -0.33 210.29 -0.33L209.79 -0.33L209.79 0L215.96 0L215.96 -0.3L215.49 -0.3C215.14 -0.3 214.83 -0.43 214.58 -0.7C214.32 -0.97 214.21 -1.27 214.26 -1.6L215.76 -15.04L223.8 0.47L224.13 0.47C224.29 -0.44 224.68 -1.58 225.3 -2.94L231.61 -15.34L233.34 -1.6C233.38 -1.25 233.28 -0.94 233.02 -0.68C232.77 -0.43 232.47 -0.3 232.14 -0.3L231.64 -0.3L231.64 0L238.58 0L238.58 -0.33Z M251.57 -20.48C249.51 -20.48 247.63 -20.04 245.92 -19.16C244.2 -18.29 242.84 -17.05 241.83 -15.44C240.82 -13.84 240.31 -12.16 240.31 -10.39C240.31 -8.62 240.61 -7.08 241.2 -5.77C241.78 -4.46 242.59 -3.35 243.6 -2.44C244.61 -1.52 245.8 -0.81 247.18 -0.3C248.56 0.21 250.15 0.47 251.95 0.47C253.75 0.47 255.51 0.03 257.22 -0.85C258.94 -1.73 260.3 -2.97 261.31 -4.57C262.32 -6.17 262.83 -7.98 262.83 -10.01C262.83 -12.03 262.32 -13.84 261.31 -15.44C260.3 -17.05 258.94 -18.29 257.22 -19.16C255.51 -20.04 253.63 -20.48 251.57 -20.48ZM251.55 -0.53C249.06 -0.53 246.98 -1.42 245.3 -3.19C243.62 -4.95 242.78 -7.23 242.78 -10.01C242.78 -12.79 243.62 -15.06 245.3 -16.83C246.98 -18.6 249.06 -19.48 251.55 -19.48C254.04 -19.48 256.13 -18.6 257.82 -16.83C259.51 -15.06 260.36 -12.79 260.36 -10.01C260.36 -7.23 259.51 -4.95 257.82 -3.19C256.13 -1.42 254.04 -0.53 251.55 -0.53Z M266.26 -0.33L265.8 -0.33L265.8 0L279.34 0L281.18 -4.77L280.84 -4.77C280.49 -3.97 280.12 -3.32 279.76 -2.84C279.39 -2.35 278.85 -1.92 278.14 -1.57C277.43 -1.21 276.56 -1.03 275.54 -1.03L270.33 -1.03L270.33 -17.88C270.33 -18.37 270.53 -18.79 270.92 -19.15C271.31 -19.5 271.77 -19.68 272.3 -19.68L272.7 -19.68L272.7 -20.01L265.8 -20.01L265.8 -19.68L266.2 -19.68C266.73 -19.68 267.19 -19.5 267.58 -19.15C267.97 -18.79 268.18 -18.37 268.2 -17.88L268.2 -2.1C268.18 -1.61 267.98 -1.2 267.62 -0.85C267.25 -0.51 266.8 -0.33 266.26 -0.33Z M283.34 -0.33L282.88 -0.33L282.88 0L296.42 0L298.25 -4.77L297.92 -4.77C297.54 -3.97 297.17 -3.32 296.8 -2.84C296.44 -2.35 295.9 -1.92 295.2 -1.57C294.5 -1.21 293.64 -1.03 292.62 -1.03L287.38 -1.03L287.38 -9.51L293.18 -9.51C293.38 -9.48 293.57 -9.44 293.75 -9.37C294.22 -9.15 294.45 -8.73 294.45 -8.11L294.45 -7.67L294.82 -7.67L294.82 -12.34L294.45 -12.34L294.45 -11.91C294.45 -11.51 294.34 -11.17 294.1 -10.91C293.87 -10.64 293.53 -10.51 293.08 -10.51L287.38 -10.51L287.38 -18.98L294.32 -18.98C294.81 -18.98 295.21 -18.81 295.52 -18.48C295.83 -18.15 295.99 -17.75 295.99 -17.28L295.99 -16.78L296.35 -16.75L296.35 -20.55C296.15 -20.46 295.71 -20.35 295.02 -20.22C294.33 -20.08 293.53 -20.01 292.62 -20.01L282.88 -20.01L282.88 -19.68L283.34 -19.68C283.88 -19.68 284.33 -19.51 284.71 -19.18C285.09 -18.85 285.28 -18.44 285.28 -17.95L285.28 -2.1C285.26 -1.61 285.06 -1.2 284.69 -0.85C284.33 -0.51 283.88 -0.33 283.34 -0.33Z M310 -19.05L316.03 -19.05C316.52 -19.05 316.92 -18.88 317.24 -18.55C317.55 -18.21 317.7 -17.81 317.7 -17.35L317.7 -16.81L318.07 -16.81L318.07 -20.58C317.18 -20.23 315.93 -20.05 314.33 -20.05L303.46 -20.05C303.06 -20.05 302.45 -20.09 301.64 -20.18C300.83 -20.27 300.2 -20.4 299.76 -20.58L299.76 -16.81L300.12 -16.81L300.12 -17.35C300.12 -17.81 300.27 -18.21 300.57 -18.55C300.87 -18.88 301.28 -19.05 301.79 -19.05L307.83 -19.05L307.83 -2.13C307.81 -1.65 307.61 -1.22 307.23 -0.87C306.85 -0.51 306.39 -0.33 305.86 -0.33L305.46 -0.33L305.46 0L312.33 0L312.33 -0.33L311.96 -0.33C311.61 -0.33 311.29 -0.41 311 -0.57C310.35 -0.9 310.02 -1.41 310 -2.1Z M330.46 -20.48C328.4 -20.48 326.52 -20.04 324.81 -19.16C323.1 -18.29 321.73 -17.05 320.72 -15.44C319.71 -13.84 319.2 -12.16 319.2 -10.39C319.2 -8.62 319.5 -7.08 320.09 -5.77C320.68 -4.46 321.48 -3.35 322.49 -2.44C323.5 -1.52 324.7 -0.81 326.08 -0.3C327.45 0.21 329.04 0.47 330.85 0.47C332.65 0.47 334.4 0.03 336.12 -0.85C337.83 -1.73 339.19 -2.97 340.2 -4.57C341.21 -6.17 341.72 -7.98 341.72 -10.01C341.72 -12.03 341.21 -13.84 340.2 -15.44C339.19 -17.05 337.83 -18.29 336.12 -19.16C334.4 -20.04 332.52 -20.48 330.46 -20.48ZM330.45 -0.53C327.95 -0.53 325.87 -1.42 324.19 -3.19C322.51 -4.95 321.67 -7.23 321.67 -10.01C321.67 -12.79 322.51 -15.06 324.19 -16.83C325.87 -18.6 327.95 -19.48 330.45 -19.48C332.94 -19.48 335.03 -18.6 336.72 -16.83C338.41 -15.06 339.25 -12.79 339.25 -10.01C339.25 -7.23 338.41 -4.95 336.72 -3.19C335.03 -1.42 332.94 -0.53 330.45 -0.53Z M364.97 -19.68L364.97 -20.01L358.63 -20.01L358.63 -19.68L358.87 -19.68C359.31 -19.68 359.64 -19.53 359.87 -19.23C360.09 -18.93 360.2 -18.65 360.2 -18.4C360.2 -18.14 360.15 -17.87 360.03 -17.58L353.9 -3.1L347.92 -17.65C347.86 -17.91 347.82 -18.17 347.82 -18.41C347.82 -18.66 347.93 -18.93 348.14 -19.23C348.35 -19.53 348.67 -19.68 349.09 -19.68L349.36 -19.68L349.36 -20.01L342.52 -20.01L342.52 -19.68L342.79 -19.68C343.86 -19.68 344.71 -19.03 345.36 -17.71L353.6 0.47L353.9 0.47C353.92 0.16 354.12 -0.47 354.5 -1.4C354.7 -1.89 357.22 -7.34 362.07 -17.75C362.4 -18.39 362.8 -18.88 363.27 -19.2C363.74 -19.52 364.21 -19.68 364.7 -19.68Z M383.98 -0.33C382.92 -0.33 382.06 -0.98 381.42 -2.27L373.18 -20.48L372.88 -20.48C372.85 -20.17 372.65 -19.55 372.28 -18.61C372.08 -18.12 369.54 -12.68 364.67 -2.27C364.36 -1.62 363.96 -1.14 363.49 -0.82C363.01 -0.49 362.54 -0.33 362.07 -0.33L361.8 -0.33L361.8 0L368.17 0L368.17 -0.33L367.91 -0.33C367.46 -0.33 367.13 -0.48 366.91 -0.78C366.68 -1.08 366.57 -1.36 366.57 -1.62C366.57 -1.87 366.63 -2.15 366.74 -2.44L368.57 -6.77L377.01 -6.77L378.85 -2.34C378.94 -2.09 378.98 -1.84 378.98 -1.58C378.98 -1.33 378.87 -1.06 378.65 -0.77C378.43 -0.48 378.1 -0.33 377.68 -0.33L377.41 -0.33L377.41 0L384.25 0L384.25 -0.33ZM369.01 -7.77L372.88 -16.91L376.61 -7.77Z"></path></g></svg>